<svg width="217" height="217" viewBox="0 0 217 217" fill="none" xmlns="http://www.w3.org/2000/svg">
<ellipse cx="199" cy="115.894" rx="18" ry="32.3122" fill="#FAB676"/>
<ellipse cx="18" cy="115.894" rx="18" ry="32.3122" fill="#FAB676"/>
<ellipse cx="108.5" cy="118.5" rx="90.5" ry="98.5" fill="#FDC794"/>
<ellipse cx="167" cy="165.926" rx="1" ry="1.04233" fill="black"/>
<path d="M68.0728 173.073C144.373 187.813 160.442 162.649 158.939 148.224" stroke="#AA713C" stroke-width="5"/>
<path d="M117.115 128.566C107.706 153.497 101.195 138.845 99.1156 128.402" stroke="#AA713C" stroke-width="3" stroke-linecap="round"/>
<ellipse cx="73.5" cy="100.5" rx="22.5" ry="26.5" fill="#FCF8F8"/>
<ellipse cx="73.5" cy="99.9111" rx="6.68919" ry="9.42223" fill="#723B1B"/>
<ellipse cx="146.5" cy="100.5" rx="22.5" ry="26.5" fill="#FCF8F8"/>
<ellipse cx="146.5" cy="99.9111" rx="6.68919" ry="9.42223" fill="#723B1B"/>
<ellipse cx="118.5" cy="33.5001" rx="85.5" ry="23.5" fill="black"/>
<ellipse cx="183.282" cy="56.2405" rx="14" ry="27.5" transform="rotate(-22 183.282 56.2405)" fill="black"/>
<ellipse cx="35.6789" cy="49.7421" rx="14" ry="27.5" transform="rotate(22 35.6789 49.7421)" fill="black"/>
<path d="M87 15.0001C80.4 9.00005 74.25 8.50006 72 9.00006" stroke="black"/>
<path d="M84.5413 14.7077C83.2918 9.55279 92.32 3.54072 96.9902 1.17905" stroke="black"/>
<path d="M179 100.5C179 117.815 164.309 132 146 132C127.691 132 113 117.815 113 100.5C113 83.1847 127.691 69 146 69C164.309 69 179 83.1847 179 100.5Z" fill="#ACE6FF" fill-opacity="0.75" stroke="#020F85" stroke-width="4"/>
<path d="M106 100.5C106 117.815 91.3089 132 73 132C54.6911 132 40 117.815 40 100.5C40 83.1847 54.6911 69 73 69C91.3089 69 106 83.1847 106 100.5Z" fill="#ACE6FF" fill-opacity="0.75" stroke="#020F85" stroke-width="4"/>
<path d="M107 101C109.773 101 110.822 101 111 101" stroke="#020F85" stroke-width="3" stroke-linecap="round"/>
</svg>
